<svg xmlns="http://www.w3.org/2000/svg" width="290" height="300" viewBox="0 0 290 300" version="1.1"><path d="M 125.500 108.733 C 124.400 109.008, 122.256 110.116, 120.735 111.196 C 114.759 115.436, 115 111.896, 115 195.450 L 115 272 129.500 272 L 144 272 144 205 L 144 138 203.500 138 L 263 138 263 123 L 263 108 195.250 108.116 C 157.988 108.180, 126.600 108.457, 125.500 108.733 M 156 190 L 156 205 203 205 L 250 205 250 190 L 250 175 203 175 L 156 175 156 190" stroke="none" fill="#60b0f4" fill-rule="evenodd"/><path d="M 21.234 100.750 C 21.541 180.471, 21.573 181.600, 23.748 189.314 C 26.779 200.065, 31.370 208.223, 37.585 213.904 C 47.760 223.204, 58.506 226.428, 77 225.733 C 90.136 225.240, 97.970 223.294, 103.943 219.041 C 105.519 217.918, 107.077 217, 107.404 217 C 107.732 217, 108 230.950, 108 248 L 108 279 129.500 279 L 151 279 151 245.500 L 151 212 204 212 L 257 212 257 190 L 257 168 204 168 L 151 168 151 156.500 L 151 145 211 145 L 271 145 271 123 L 271 101 199 101 L 127 101 127 60.500 L 127 20 102.551 20 L 78.102 20 77.801 97.250 C 77.496 175.577, 77.334 179, 73.940 179 C 71.289 179, 71 170.928, 71 96.935 L 71 20 45.961 20 L 20.922 20 21.234 100.750 M 27.290 103.250 C 27.567 156.307, 28.051 182.066, 28.837 185.500 C 29.467 188.250, 31.778 194.151, 33.972 198.614 C 38.471 207.764, 44.202 213.060, 54 217.124 C 58.849 219.136, 61.215 219.409, 74 219.432 C 89.855 219.462, 94.725 218.264, 103.500 212.179 L 107.500 209.405 108 163.452 C 108.459 121.248, 108.652 117.195, 110.361 113.756 C 112.212 110.032, 118.193 104, 120.035 104 C 120.639 104, 121 89.396, 121 65 L 121 26 102 26 L 83 26 82.998 101.250 C 82.997 170.911, 82.867 176.756, 81.248 179.940 C 79.145 184.080, 75.148 185.718, 71.171 184.071 C 65.255 181.620, 65.525 185.330, 65.226 102.250 L 64.952 26 45.920 26 L 26.888 26 27.290 103.250 M 125.500 108.733 C 124.400 109.008, 122.256 110.116, 120.735 111.196 C 114.759 115.436, 115 111.896, 115 195.450 L 115 272 129.500 272 L 144 272 144 205 L 144 138 203.500 138 L 263 138 263 123 L 263 108 195.250 108.116 C 157.988 108.180, 126.600 108.457, 125.500 108.733 M 156 190 L 156 205 203 205 L 250 205 250 190 L 250 175 203 175 L 156 175 156 190" stroke="none" fill="#000000" fill-rule="evenodd"/><path d="M 27.290 103.250 C 27.567 156.307, 28.051 182.066, 28.837 185.500 C 29.467 188.250, 31.778 194.151, 33.972 198.614 C 38.471 207.764, 44.202 213.060, 54 217.124 C 58.849 219.136, 61.215 219.409, 74 219.432 C 89.855 219.462, 94.725 218.264, 103.500 212.179 L 107.500 209.405 108 163.452 C 108.459 121.248, 108.652 117.195, 110.361 113.756 C 112.212 110.032, 118.193 104, 120.035 104 C 120.639 104, 121 89.396, 121 65 L 121 26 102 26 L 83 26 82.998 101.250 C 82.997 170.911, 82.867 176.756, 81.248 179.940 C 79.145 184.080, 75.148 185.718, 71.171 184.071 C 65.255 181.620, 65.525 185.330, 65.226 102.250 L 64.952 26 45.920 26 L 26.888 26 27.290 103.250" stroke="none" fill="#cb931b" fill-rule="evenodd"/></svg>